<?xml version="1.0" encoding="UTF-8"?>
<svg width="290px" height="290px" viewBox="0 0 290 290" version="1.1" xmlns="http://www.w3.org/2000/svg" xmlns:xlink="http://www.w3.org/1999/xlink">
    <!-- Generator: Sketch 49.3 (51167) - http://www.bohemiancoding.com/sketch -->
    <title>icon3</title>
    <desc>Created with Sketch.</desc>
    <defs></defs>
    <g id="icon3" stroke="none" stroke-width="1" fill="none" fill-rule="evenodd">
        <g id="188379" transform="translate(13.000000, 14.000000)" fill="#9B9B9B" fill-rule="nonzero">
            <path d="M188.666819,245 L67.333181,245 C64.9413748,245 63,247.016055 63,249.499868 L63,258.500132 C63,260.983945 64.9413748,263 67.333181,263 C69.7249872,263 71.666362,260.983945 71.666362,258.500132 L71.666362,254.000264 L188.666819,254.000264 C191.058625,254.000264 193,251.984209 193,249.500396 C193,247.016582 191.059133,245 188.666819,245 Z" id="Shape"></path>
            <path d="M95,110.625128 C95,113.039947 97.0907031,115 99.6664844,115 L118.333516,115 C120.909297,115 123,113.039947 123,110.625128 L123,84.3748718 C123,81.9600533 120.909297,80 118.333516,80 L99.6670312,80 C97.09125,80 95.0005469,81.9600533 95.0005469,84.3748718 L95.0005469,110.625128 L95,110.625128 Z M104.333516,88.7502564 L113.667031,88.7502564 L113.667031,106.250256 L104.333516,106.250256 L104.333516,88.7502564 Z" id="Shape"></path>
            <path d="M55.7144292,53 L4.28557079,53 C1.9200442,53 0,54.9345826 0,57.3180208 L0,143.681979 C0,146.065417 1.9200442,148 4.28557079,148 C6.65109738,148 8.57114158,146.065417 8.57114158,143.681979 L8.57114158,61.6365477 L55.7144292,61.6365477 C58.0799558,61.6365477 60,59.701965 60,57.3185268 C60,54.9350887 58.080458,53 55.7144292,53 Z" id="Shape"></path>
            <path d="M210,213.625128 C210,216.039947 211.866736,218 214.166585,218 L230.833415,218 C233.133264,218 235,216.039947 235,213.625128 L235,187.374872 C235,184.960053 233.133264,183 230.833415,183 L214.166585,183 C211.866736,183 210,184.960053 210,187.374872 L210,213.625128 Z M218.333659,191.750256 L226.667318,191.750256 L226.667318,209.250256 L218.333659,209.250256 L218.333659,191.750256 Z" id="Shape"></path>
            <path d="M21.5005035,158 C0.24490226,158 0,214.30625 0,214.874829 C0,225.440454 7.40048269,234.273682 17.2001005,236.308057 L17.2001005,258.625171 C17.2001005,261.039966 19.1265641,263 21.4999996,263 C23.8734351,263 25.7998988,261.039966 25.7998988,258.625171 L25.7998988,236.308057 C35.5995166,234.273682 42.9999992,225.440454 42.9999992,214.874829 C43.0005032,214.30625 42.7556009,158 21.5005035,158 Z M21.5005035,227.999829 C14.3882597,227.999829 8.6003022,222.111011 8.6003022,214.874829 C8.6003022,193.078613 14.3539936,166.749658 21.5005035,166.749658 C28.6470135,166.749658 34.4007049,193.078613 34.4007049,214.874829 C34.4007049,222.111011 28.6127474,227.999829 21.5005035,227.999829 Z" id="Shape"></path>
            <path d="M48.8339029,130 L32.1665853,130 C29.8667357,130 28,131.960025 28,134.374808 L28,143.124936 C28,145.539719 29.8667357,147.499744 32.1665853,147.499744 C34.4664349,147.499744 36.3331705,145.539719 36.3331705,143.124936 L36.3331705,138.750128 L44.6668294,138.750128 L44.6668294,160.625192 C44.6668294,163.039975 46.533565,165 48.8334146,165 C51.1332642,165 52.9999999,163.039975 52.9999999,160.625192 L52.9999999,134.37532 C53.0004882,131.960025 51.1337525,130 48.8339029,130 Z" id="Shape"></path>
            <path d="M214.166585,115 L230.833415,115 C233.133264,115 235,113.039947 235,110.625128 L235,84.3748718 C235,81.9600533 233.133264,80 230.833415,80 L214.166585,80 C211.866736,80 210,81.9600533 210,84.3748718 L210,110.625128 C210,113.039947 211.866736,115 214.166585,115 Z M218.333659,88.7497436 L226.667318,88.7497436 L226.667318,106.249744 L218.333659,106.249744 L218.333659,88.7497436 Z" id="Shape"></path>
            <path d="M48.8339029,80 L32.1665853,80 C29.8667357,80 28,81.9600533 28,84.3748718 L28,110.625128 C28,113.039947 29.8667357,115 32.1665853,115 L48.8334146,115 C51.1332642,115 52.9999999,113.039947 52.9999999,110.625128 L52.9999999,84.3748718 C53.0004882,81.9600533 51.1337525,80 48.8339029,80 Z M44.6668294,106.250256 L36.3336588,106.250256 L36.3336588,88.7502564 L44.6673177,88.7502564 L44.6673177,106.250256 L44.6668294,106.250256 Z" id="Shape"></path>
            <path d="M140,110.625128 C140,113.039947 141.866736,115 144.166585,115 L160.833415,115 C163.133264,115 165,113.039947 165,110.625128 L165,84.3748718 C165,81.9600533 163.133264,80 160.833415,80 L144.166585,80 C141.866736,80 140,81.9600533 140,84.3748718 L140,110.625128 Z M148.333171,88.7502564 L156.666829,88.7502564 L156.666829,106.250256 L148.333171,106.250256 L148.333171,88.7502564 Z" id="Shape"></path>
            <path d="M258.714429,53 L207.285571,53 C204.920044,53 203,54.9600342 203,57.3748291 C203,59.789624 204.920044,61.7496582 207.285571,61.7496582 L254.428858,61.7496582 L254.428858,237.554932 C253.083371,237.064795 251.656019,236.75 250.143288,236.75 C249.401989,236.75 248.664708,236.815625 247.940485,236.946875 C244.983326,231.508716 239.356285,227.999829 233.000502,227.999829 C226.644719,227.999829 221.017679,231.508716 218.060519,236.946875 C217.336297,236.815625 216.599016,236.75 215.857717,236.75 C208.769173,236.75 203.000502,242.638818 203.000502,249.875 C203.000502,257.111182 208.769173,263 215.857717,263 L250.142785,263 C257.231329,263 263,257.111182 263,249.875 L263,57.3748291 C263,54.9600342 261.079956,53 258.714429,53 Z M250.142785,254.249829 L215.856712,254.249829 C213.495204,254.249829 211.571142,252.285693 211.571142,249.875 C211.571142,247.464307 213.495204,245.500171 215.856712,245.500171 C216.679373,245.500171 217.459344,245.740625 218.179549,246.21333 C219.353774,246.983398 220.819798,247.123364 222.114058,246.589648 C223.408317,246.055933 224.36407,244.909546 224.676962,243.522705 C225.581488,239.537012 229.005725,236.75 233,236.75 C236.994275,236.75 240.418512,239.537012 241.323038,243.522705 C241.63593,244.909546 242.591683,246.055933 243.885942,246.589648 C245.176184,247.123364 246.645723,246.983398 247.820451,246.21333 C250.610366,244.37583 254.428858,246.624512 254.428858,249.875 C254.428356,252.285693 252.504294,254.249829 250.142785,254.249829 Z" id="Shape"></path>
            <path d="M144.166585,63 L160.833415,63 C163.133264,63 165,61.0399467 165,58.6251282 L165,32.3748718 C165,29.9600533 163.133264,28 160.833415,28 L144.166585,28 C141.866736,28 140,29.9600533 140,32.3748718 L140,58.6251282 C140,61.0399467 141.866736,63 144.166585,63 Z M148.333171,36.7497436 L156.666829,36.7497436 L156.666829,54.2497436 L148.333171,54.2497436 L148.333171,36.7497436 Z" id="Shape"></path>
            <path d="M140,160.625128 C140,163.039947 141.866736,165 144.166585,165 L160.833415,165 C163.133264,165 165,163.039947 165,160.625128 L165,134.374872 C165,131.960053 163.133264,130 160.833415,130 L144.166585,130 C141.866736,130 140,131.960053 140,134.374872 L140,160.625128 Z M148.333171,138.750256 L156.666829,138.750256 L156.666829,156.250256 L148.333171,156.250256 L148.333171,138.750256 Z" id="Shape"></path>
            <path d="M102.166585,63 L118.833415,63 C121.133264,63 123,61.0399467 123,58.6251282 L123,32.3748718 C123,29.9600533 121.133264,28 118.833415,28 L102.166585,28 C99.8667358,28 98.0000001,29.9600533 98.0000001,32.3748718 L98.0000001,58.6251282 C97.9995118,61.0399467 99.8662475,63 102.166585,63 Z M106.333171,36.7497436 L114.666829,36.7497436 L114.666829,54.2497436 L106.333171,54.2497436 L106.333171,36.7497436 Z" id="Shape"></path>
            <path d="M129.450082,211.117118 C128.550152,211.881673 128,212.928279 128,213.974884 C128,215.02149 128.550152,216.067624 129.450082,216.83265 C130.399813,217.557115 131.699906,218 133,218 C134.300094,218 135.599602,217.557115 136.549918,216.83265 C137.449848,216.068095 138,215.02149 138,213.974884 C138,212.928279 137.449848,211.882145 136.549918,211.117118 C134.649871,209.627627 131.350129,209.627627 129.450082,211.117118 Z" id="Shape"></path>
            <path d="M95,160.625128 C95,163.039947 97.0907031,165 99.6664844,165 L118.333516,165 C120.909297,165 123,163.039947 123,160.625128 L123,134.374872 C123,131.960053 120.909297,130 118.333516,130 L99.6670312,130 C97.09125,130 95.0005469,131.960053 95.0005469,134.374872 L95.0005469,160.625128 L95,160.625128 Z M104.333516,138.750256 L113.667031,138.750256 L113.667031,156.250256 L104.333516,156.250256 L104.333516,138.750256 Z" id="Shape"></path>
            <path d="M88,187.416537 C88,189.854354 89.9712536,191.833075 92.3998711,191.833075 L105.6,191.833075 L105.6,231.583463 C105.6,234.02128 107.571254,236 109.999871,236 C112.428489,236 114.399742,234.02128 114.399742,231.583463 L114.399742,191.833075 L149.600258,191.833075 L149.600258,231.583463 C149.600258,234.02128 151.571511,236 154.000129,236 C156.428746,236 158.4,234.02128 158.4,231.583463 L158.4,191.833075 L171.600129,191.833075 C174.028746,191.833075 176,189.854354 176,187.416537 C176,184.97872 174.028746,183 171.600129,183 L92.3998711,183 C89.9712536,183 88,184.97872 88,187.416537 Z" id="Shape"></path>
            <path d="M210,160.625128 C210,163.039947 211.866736,165 214.166585,165 L230.833415,165 C233.133264,165 235,163.039947 235,160.625128 L235,134.374872 C235,131.960053 233.133264,130 230.833415,130 L214.166585,130 C211.866736,130 210,131.960053 210,134.374872 L210,160.625128 Z M218.333659,138.750256 L226.667318,138.750256 L226.667318,156.250256 L218.333659,156.250256 L218.333659,138.750256 Z" id="Shape"></path>
            <path d="M188.60729,0 L74.3927101,0 C71.9680453,0 70,1.94966786 70,4.3516913 L70,230.648309 C70,233.050332 71.9680453,235 74.3927101,235 C76.8173748,235 78.7854201,233.050332 78.7854201,230.648309 L78.7854201,8.7033826 L184.21458,8.7033826 L184.21458,230.648309 C184.21458,233.050332 186.182625,235 188.60729,235 C191.031955,235 193,233.050332 193,230.648309 L193,4.3516913 C193.000515,1.94966786 191.032469,0 188.60729,0 Z" id="Shape"></path>
        </g>
    </g>
</svg>