<?xml version="1.0" encoding="UTF-8"?>
<svg width="290px" height="290px" viewBox="0 0 290 290" version="1.1" xmlns="http://www.w3.org/2000/svg" xmlns:xlink="http://www.w3.org/1999/xlink">
    <!-- Generator: Sketch 49.3 (51167) - http://www.bohemiancoding.com/sketch -->
    <title>icon2</title>
    <desc>Created with Sketch.</desc>
    <defs></defs>
    <g id="icon2" stroke="none" stroke-width="1" fill="none" fill-rule="evenodd">
        <g id="824615" transform="translate(6.000000, 66.000000)" fill="#9B9B9B" fill-rule="nonzero">
            <path d="M83.5,101.353102 L60.5117188,101.353102 C32.5941753,101.38586 9.9702583,124.009777 9.9375,151.92732 L9.9375,193.306227 L5.33984375,193.306227 C2.80078809,193.306227 0.7421875,195.364827 0.7421875,197.903883 L0.7421875,216.294508 C0.7421875,218.833563 2.80078809,220.892164 5.33984375,220.892164 L69.7070313,220.892164 C72.2460869,220.892164 74.3046875,218.833563 74.3046875,216.294508 L74.3046875,197.903883 C74.3046875,195.364827 72.2460869,193.306227 69.7070313,193.306227 L65.109375,193.306227 L65.109375,161.122633 C65.109375,158.583577 67.1679756,156.524977 69.7070313,156.524977 L83.5,156.524977 L83.5,165.720289 L92.6953125,165.720289 L92.6953125,92.1577891 L83.5,92.1577891 L83.5,101.353102 Z M65.109375,211.696852 L9.9375,211.696852 L9.9375,202.501539 L65.109375,202.501539 L65.109375,211.696852 Z M83.5,147.329664 L69.7070312,147.329664 C62.0892896,147.329664 55.9140625,153.504891 55.9140625,161.122633 L55.9140625,193.306227 L19.1328125,193.306227 L19.1328125,151.92732 C19.1580996,129.085015 37.6694131,110.573701 60.5117187,110.548414 L83.5,110.548414 L83.5,147.329664 Z" id="Shape"></path>
            <path d="M230.625,101.353102 L207.636719,101.353102 L207.636719,101.472641 C205.021227,97.9795713 201.92528,94.8732798 198.441406,92.2451446 L198.441406,73.7671641 L207.636719,73.7671641 L207.636719,64.5718516 L134.074219,64.5718516 L134.074219,73.7671641 L143.269531,73.7671641 L143.269531,92.2451446 C139.785657,94.8732798 136.68971,97.9795713 134.074219,101.472641 L134.074219,101.353102 L111.085938,101.353102 L111.085938,92.1577891 L101.890625,92.1577891 L101.890625,165.720289 L111.085938,165.720289 L111.085938,156.524977 L134.074219,156.524977 L134.074219,156.405438 C149.143612,176.719032 177.827814,180.97014 198.141409,165.900747 C201.755742,163.219164 204.955136,160.01977 207.636719,156.405438 L207.636719,156.524977 L230.625,156.524977 L230.625,165.720289 L239.820312,165.720289 L239.820312,92.1577891 L230.625,92.1577891 L230.625,101.353102 Z M128.745535,147.329664 L111.085938,147.329664 L111.085938,110.548414 L128.745535,110.548414 C123.589838,122.26669 123.589838,135.611388 128.745535,147.329664 Z M152.464844,73.7671641 L189.246094,73.7671641 L189.246094,86.8291055 C177.527817,81.6734087 164.18312,81.6734087 152.464844,86.8291055 L152.464844,73.7671641 Z M170.855469,165.720289 C152.336684,165.689255 136.722469,151.908355 134.391457,133.536695 L143.68332,133.536695 C146.207434,148.543445 160.418789,158.662887 175.425539,156.138773 C187.00646,154.191091 196.079935,145.117617 198.027617,133.536695 L207.31948,133.536695 C204.988469,151.908355 189.374253,165.689255 170.855469,165.720289 Z M152.464844,128.939039 C152.464844,118.782242 160.698671,110.548414 170.855469,110.548414 C181.012266,110.548414 189.246094,118.782242 189.246094,128.939039 C189.246094,139.095836 181.012266,147.329664 170.855469,147.329664 C160.698671,147.329664 152.464844,139.095836 152.464844,128.939039 Z M198.027617,124.341383 C195.503504,109.334633 181.292148,99.2151914 166.285398,101.739305 C154.704477,103.686987 145.631002,112.760461 143.68332,124.341383 L134.391457,124.341383 C136.722469,105.969723 152.336684,92.1888233 170.855469,92.1577891 C189.374253,92.1888233 204.988469,105.969723 207.31948,124.341383 L198.027617,124.341383 Z M230.625,147.329664 L212.965402,147.329664 C218.121099,135.611388 218.121099,122.26669 212.965402,110.548414 L230.625,110.548414 L230.625,147.329664 Z" id="Shape"></path>
            <path d="M281.199219,101.353102 L258.210938,101.353102 L258.210938,92.1577891 L249.015625,92.1577891 L249.015625,165.720289 L258.210938,165.720289 L258.210938,156.524977 L281.199219,156.524977 C283.738274,156.524977 285.796875,154.466376 285.796875,151.92732 L285.796875,105.950758 C285.796875,103.411702 283.738274,101.353102 281.199219,101.353102 Z M276.601563,147.329664 L258.210938,147.329664 L258.210938,110.548414 L276.601563,110.548414 L276.601563,147.329664 Z" id="Shape"></path>
            <path d="M226.027344,0.204664083 L115.683594,0.204664083 C108.065852,0.204664083 101.890625,6.37989113 101.890625,13.9976328 C101.890625,21.6153745 108.065852,27.7906016 115.683594,27.7906016 L140.809785,27.7906016 L153.071734,46.1812266 L134.074219,46.1812266 L134.074219,55.3765391 L207.636719,55.3765391 L207.636719,46.1812266 L188.639203,46.1812266 L200.901152,27.7906016 L226.027344,27.7906016 C233.645085,27.7906016 239.820312,21.6153745 239.820312,13.9976328 C239.820312,6.37989113 233.645085,0.204664083 226.027344,0.204664083 Z M177.591035,46.1812266 L164.119902,46.1812266 L151.857953,27.7906016 L189.852984,27.7906016 L177.591035,46.1812266 Z M226.027344,18.5952891 L115.683594,18.5952891 C113.144538,18.5952891 111.085938,16.5366885 111.085938,13.9976328 C111.085938,11.4585772 113.144538,9.39997658 115.683594,9.39997658 L226.027344,9.39997658 C228.566399,9.39997658 230.625,11.4585772 230.625,13.9976328 C230.625,16.5366885 228.566399,18.5952891 226.027344,18.5952891 Z" id="Shape"></path>
        </g>
    </g>
</svg>