<?xml version="1.0" encoding="UTF-8"?>
<svg width="290px" height="290px" viewBox="0 0 290 290" version="1.1" xmlns="http://www.w3.org/2000/svg" xmlns:xlink="http://www.w3.org/1999/xlink">
    <!-- Generator: Sketch 49.3 (51167) - http://www.bohemiancoding.com/sketch -->
    <title>icon1</title>
    <desc>Created with Sketch.</desc>
    <defs></defs>
    <g id="icon1" stroke="none" stroke-width="1" fill="none" fill-rule="evenodd">
        <g id="125384" transform="translate(0.000000, 88.000000)" fill="#9B9B9B" fill-rule="nonzero">
            <path d="M284.318575,124.115357 L271.405955,124.115357 C271.322313,124.115357 271.244289,124.083087 271.185616,124.024752 L264.122905,117.002926 C262.295276,115.186498 259.866553,114.186128 257.282406,114.186128 L244.058315,114.186128 L244.058315,113.87584 C244.058315,108.57177 239.718322,104.256899 234.383369,104.256899 L224.396328,104.256899 C219.061376,104.256899 214.721382,108.57177 214.721382,113.87584 L214.721382,114.186128 L201.496667,114.186128 C198.912521,114.186128 196.483797,115.186498 194.655544,117.003547 L187.594706,124.024132 C187.535408,124.083087 187.45676,124.114736 187.373743,124.114736 L169.155508,124.114736 L169.155508,106.001961 C169.155508,105.920666 169.18859,105.840611 169.247263,105.782277 L176.308102,98.7616921 C178.13573,96.9452638 179.142549,94.529979 179.142549,91.9601705 L179.142549,78.8132514 L179.454644,78.8132514 C184.789596,78.8132514 189.12959,74.498381 189.12959,69.1943113 L189.12959,59.2650827 C189.12959,53.961013 184.789596,49.6461426 179.454644,49.6461426 L159.168467,49.6461426 L159.168467,44.0609516 L199.428726,44.0609516 C203.738134,44.0609516 207.812222,42.1874303 210.606097,38.9219552 C213.398724,35.6577214 214.599041,31.3347835 213.899948,27.0627329 C212.764546,20.1253051 206.313542,14.8938428 198.894419,14.8938428 L162.854933,14.8938428 L161.204575,9.97142774 C159.20467,4.00706429 153.611927,0 147.288881,0 L141.711119,0 C135.388073,0 129.79533,4.00706429 127.795425,9.97142774 L126.145067,14.8938428 L90.105581,14.8938428 C82.6864579,14.8938428 76.2354536,20.1253051 75.1000518,27.0621123 C74.400959,31.3347835 75.6012765,35.6577214 78.3939028,38.9213347 C81.1877775,42.1874303 85.2612419,44.060331 89.5712743,44.060331 L129.831533,44.060331 L129.831533,49.645522 L109.545356,49.645522 C104.210404,49.645522 99.8704104,53.9603924 99.8704104,59.2644622 L99.8704104,69.1936907 C99.8704104,74.4977605 104.210404,78.8126308 109.545356,78.8126308 L109.857451,78.8126308 L109.857451,91.9607911 C109.857451,94.5305996 110.86427,96.9458844 112.691274,98.7616921 L119.753985,105.783518 C119.81141,105.841232 119.845117,105.921286 119.845117,106.002582 L119.845117,124.115357 L101.626881,124.115357 C101.54324,124.115357 101.465216,124.083087 101.406542,124.024752 L94.3438315,117.002926 C92.516203,115.186498 90.0874795,114.186128 87.5033326,114.186128 L74.2786177,114.186128 L74.2786177,113.87584 C74.2786177,108.57177 69.9386242,104.256899 64.6036717,104.256899 L54.6166307,104.256899 C49.2816782,104.256899 44.9416847,108.57177 44.9416847,113.87584 L44.9416847,114.186128 L31.7169698,114.186128 C29.1328229,114.186128 26.7040994,115.186498 24.8758467,117.003547 L17.8150086,124.024132 C17.7557106,124.083087 17.6770626,124.115357 17.5940454,124.115357 L4.68142549,124.115357 C2.09603024,124.115357 0,126.198633 0,128.769682 L0,168.486597 C0,171.057646 2.09603024,173.140922 4.68142549,173.140922 L17.5940454,173.140922 C17.6776868,173.140922 17.7557106,173.173192 17.8143844,173.231527 L24.877095,180.253353 C26.7047235,182.069781 29.1334471,183.070151 31.717594,183.070151 L44.9416847,183.070151 L44.9416847,183.380439 C44.9416847,188.684509 49.2816782,192.999379 54.6166307,192.999379 L64.6036717,192.999379 C69.9386242,192.999379 74.2786177,188.684509 74.2786177,183.380439 L74.2786177,183.070151 L87.5033326,183.070151 C90.0874795,183.070151 92.516203,182.069781 94.3444557,180.252732 L101.405294,173.232147 C101.464592,173.173192 101.54324,173.141543 101.626257,173.141543 L187.373119,173.141543 C187.45676,173.141543 187.535408,173.173813 187.593458,173.232147 L194.656168,180.253973 C196.483797,182.070402 198.912521,183.070771 201.496667,183.070771 L214.721382,183.070771 L214.721382,183.38106 C214.721382,188.68513 219.061376,193 224.396328,193 L234.383369,193 C239.718322,193 244.058315,188.68513 244.058315,183.38106 L244.058315,183.070151 L257.28303,183.070151 C259.867177,183.070151 262.295901,182.069781 264.124153,180.252732 L271.184991,173.232147 C271.244289,173.173192 271.322937,173.141543 271.405955,173.141543 L284.318575,173.141543 C286.90397,173.141543 289,171.058267 289,168.487217 L289,128.770303 C289,126.198633 286.90397,124.115357 284.318575,124.115357 Z M257.28303,123.49478 C257.366672,123.49478 257.444695,123.52705 257.503369,123.585384 L264.56608,130.60721 C266.393708,132.423639 268.822432,133.424008 271.406579,133.424008 L279.637149,133.424008 L279.637149,148.938428 L244.058315,148.938428 L244.058315,123.49478 L257.28303,123.49478 Z M85.5265227,32.8911901 C84.5009784,31.6922357 84.0802743,30.1538259 84.3418099,28.5570818 C84.7412916,26.1151122 87.2730065,24.2024945 90.105581,24.2024945 L129.519438,24.2024945 C131.534948,24.2024945 133.323253,22.9210035 133.960551,21.0201768 L136.67765,12.915444 C137.401086,10.7576985 139.424086,9.30803116 141.711119,9.30803116 L147.288881,9.30803116 C149.576538,9.30803116 151.598914,10.7576985 152.32235,12.915444 L155.039449,21.0201768 C155.676747,22.9210035 157.465676,24.2024945 159.480562,24.2024945 L198.894419,24.2024945 C201.726994,24.2024945 204.258708,26.1151122 204.65819,28.5570818 C204.919726,30.1538259 204.499022,31.6928563 203.473477,32.8911901 C202.461665,34.0740094 200.987952,34.7522998 199.428726,34.7522998 L89.5712743,34.7522998 C88.0120475,34.7522998 86.5383348,34.0740094 85.5265227,32.8911901 Z M139.194384,44.0609516 L149.805616,44.0609516 L149.805616,49.6461426 L139.194384,49.6461426 L139.194384,44.0609516 Z M109.233261,69.1943113 L109.233261,59.2650827 C109.233261,59.0944241 109.37308,58.9547944 109.545356,58.9547944 L179.454644,58.9547944 C179.62692,58.9547944 179.766739,59.0944241 179.766739,59.2650827 L179.766739,69.1943113 C179.766739,69.3649699 179.62692,69.5045997 179.454644,69.5045997 L109.545356,69.5045997 C109.37308,69.5045997 109.233261,69.3649699 109.233261,69.1943113 Z M87.5033326,123.49478 C87.5869741,123.49478 87.6649978,123.52705 87.7236717,123.585384 L94.7863823,130.60721 C96.6140108,132.423639 99.0427343,133.424008 101.626881,133.424008 L124.525918,133.424008 C127.111313,133.424008 129.207343,131.340732 129.207343,128.769682 L129.207343,106.002582 C129.207343,103.432774 128.200525,101.017489 126.373521,99.201681 L119.31081,92.1798547 C119.253384,92.1221411 119.219678,92.0420867 119.219678,91.9607911 L119.219678,78.8132514 L169.779073,78.8132514 L169.779073,91.9614117 C169.779073,92.0427073 169.745991,92.1227617 169.687317,92.1810959 L162.626479,99.201681 C160.798851,101.018109 159.792032,103.433394 159.792032,106.003203 L159.792032,128.769682 C159.792032,131.340732 161.888063,133.424008 164.473458,133.424008 L187.373119,133.424008 C189.957266,133.424008 192.385989,132.423639 194.214242,130.60659 L201.27508,123.586005 C201.334378,123.52705 201.413026,123.4954 201.496043,123.4954 L214.721382,123.4954 L214.721382,148.939048 L74.2786177,148.939048 L74.2786177,123.4954 L87.5033326,123.4954 L87.5033326,123.49478 Z M17.5940454,133.424008 C20.1781922,133.424008 22.6069158,132.423639 24.4351685,130.60659 L31.4960065,123.586005 C31.5553045,123.52705 31.6339525,123.4954 31.7169698,123.4954 L44.9416847,123.4954 L44.9416847,148.939048 L9.36285097,148.939048 L9.36285097,133.424629 L17.5940454,133.424629 L17.5940454,133.424008 Z M31.7169698,173.761499 C31.6333283,173.761499 31.5553045,173.729229 31.4966307,173.670895 L24.4339201,166.649069 C22.6069158,164.83264 20.177568,163.832271 17.5940454,163.832271 L9.36285097,163.832271 L9.36285097,158.24708 L44.9416847,158.24708 L44.9416847,173.761499 L31.7169698,173.761499 Z M64.9157667,183.380439 C64.9157667,183.551098 64.7759482,183.690728 64.6036717,183.690728 L54.6166307,183.690728 C54.4443542,183.690728 54.3045356,183.551098 54.3045356,183.380439 L54.3045356,113.87584 C54.3045356,113.705181 54.4443542,113.565551 54.6166307,113.565551 L64.6036717,113.565551 C64.7759482,113.565551 64.9157667,113.705181 64.9157667,113.87584 L64.9157667,183.380439 Z M201.496667,173.761499 C201.413026,173.761499 201.334378,173.729229 201.276328,173.670895 L194.213618,166.649069 C192.385989,164.83264 189.957266,163.832271 187.373119,163.832271 L101.626257,163.832271 C99.0421102,163.832271 96.6133866,164.83264 94.7851339,166.649689 L87.7242959,173.670274 C87.6649978,173.729229 87.5863499,173.760879 87.5033326,173.760879 L74.2786177,173.760879 L74.2786177,158.246459 L214.721382,158.246459 L214.721382,173.760879 L201.496667,173.760879 L201.496667,173.761499 Z M234.695464,183.380439 C234.695464,183.551098 234.555646,183.690728 234.383369,183.690728 L224.396328,183.690728 C224.224052,183.690728 224.084233,183.551098 224.084233,183.380439 L224.084233,113.87584 C224.084233,113.705181 224.224052,113.565551 224.396328,113.565551 L234.383369,113.565551 C234.555646,113.565551 234.695464,113.705181 234.695464,113.87584 L234.695464,183.380439 Z M271.405955,163.832271 C268.821808,163.832271 266.393084,164.83264 264.564832,166.649689 L257.503994,173.670274 C257.444695,173.729229 257.366048,173.760879 257.28303,173.760879 L244.058315,173.760879 L244.058315,158.246459 L279.637149,158.246459 L279.637149,163.83165 L271.405955,163.83165 L271.405955,163.832271 Z" id="Shape"></path>
        </g>
    </g>
</svg>